<svg width="438" height="94" viewBox="0 0 438 94" xmlns="http://www.w3.org/2000/svg"><title>our heroes</title><g fill="none" fill-rule="evenodd"><path d="M147.5 15.312H.95M436.687 15.312H287.5" stroke="#979797" stroke-linecap="round"/><path d="M208.06.916c-7.74 0-13.824 8.1-13.824 15.408 0 5.328 3.132 9.144 8.676 9.144 7.704 0 14.076-7.992 14.076-15.3 0-5.256-3.492-9.252-8.928-9.252zm.468.792c3.276 0 4.86 3.528 4.86 6.336 0 5.652-3.636 16.632-10.584 16.632-3.564 0-4.968-3.204-4.968-6.3 0-5.544 3.888-16.668 10.692-16.668zm16.344 14.616c.396-1.26.864-2.88.864-4.176 0-1.26-.792-2.664-2.196-2.664-2.664 0-4.464 3.456-5.472 5.544l.756.36c.54-1.08 2.592-4.824 3.924-4.824.648 0 .432 1.188.396 1.548-.144 1.584-.828 3.312-1.296 4.896l-.648 2.124c-.36 1.152-.684 2.124-.684 3.348 0 1.764 1.332 2.988 3.024 2.988 2.844 0 4.644-2.88 5.94-5.004l.072.072c-.072.72-.108 1.476-.18 2.196-.144 1.548.72 2.736 2.412 2.736 2.448 0 3.96-3.348 4.68-5.328l-.792-.288c-.324 1.08-2.052 4.536-3.24 4.536-.504 0-.612-.684-.612-1.044 0-2.736 1.26-6.48 2.016-9.144l1.368-4.536h-2.664l-2.916 8.676c-.828 1.872-3.132 6.048-5.472 6.048-.756 0-1.296-.432-1.296-1.188 0-.576.324-1.584.504-2.124l1.512-4.752zm13.356-1.26c.324-.828 2.304-4.5 3.168-4.5.648 0 .576 1.656.576 1.98 0 1.8-.612 4.752-1.044 6.516L239.092 25h2.664l1.152-3.42c.9-2.736 1.944-5.94 3.276-8.496.288-.576 1.512-2.52 2.268-2.52.324 0 .252.54.252.756 0 .72.504 1.152 1.188 1.152.756 0 1.404-.612 1.404-1.332 0-1.08-1.044-1.656-2.016-1.656-2.556 0-4.284 3.78-5.04 5.796l-.072-.072c.072-.792.252-1.584.288-2.376.036-1.44-.576-3.348-2.376-3.348-1.908 0-3.96 3.636-4.608 5.292l.756.288zm-59.004 25.288h.072l2.268 19.296h1.152l8.892-18.396c.972-2.052 1.908-4.752 4.464-5.22l.144-.792c-1.188.036-2.376.108-3.564.144-1.152-.036-2.268-.108-3.42-.144l-.216.792c1.044.108 2.664.036 2.664 1.476 0 1.296-2.232 5.94-2.916 7.344l-4.68 9.828h-.072l-1.332-12.924-.216-3.384c0-2.16 1.008-2.088 2.808-2.34l.18-.792c-1.512.036-2.988.108-4.5.144-1.44-.036-2.916-.108-4.356-.144l-.18.792c.792.072 2.916 0 2.916 1.224 0 .9-1.116 2.88-1.512 3.744l-6.3 13.428h-.072l-1.476-15.12c-.036-.54 0-1.08-.036-1.62 0-1.836 1.764-1.512 3.024-1.656l.216-.792c-1.62.036-3.24.108-4.86.144-1.512-.036-3.024-.108-4.536-.144l-.216.792c3.096.036 2.88 1.296 3.168 3.924l2.16 19.692h1.188l9.144-19.296zm17.856 19.116c4.68 0 8.28-5.94 8.28-10.152 0-3.024-1.62-5.832-4.968-5.832-4.86 0-8.316 6.552-8.316 10.728 0 3.096 1.872 5.256 5.004 5.256zm.036-.792c-1.692 0-2.448-1.08-2.448-2.7 0-2.952 2.124-11.7 5.904-11.7 1.476 0 2.196 1.368 2.196 2.664 0 3.024-1.692 11.736-5.652 11.736zm9.972-9.612c.324-.828 2.304-4.5 3.168-4.5.648 0 .576 1.656.576 1.98 0 1.8-.612 4.752-1.044 6.516L207.952 59h2.664l1.152-3.42c.9-2.736 1.944-5.94 3.276-8.496.288-.576 1.512-2.52 2.268-2.52.324 0 .252.54.252.756 0 .72.504 1.152 1.188 1.152.756 0 1.404-.612 1.404-1.332 0-1.08-1.044-1.656-2.016-1.656-2.556 0-4.284 3.78-5.04 5.796l-.072-.072c.072-.792.252-1.584.288-2.376.036-1.44-.576-3.348-2.376-3.348-1.908 0-3.96 3.636-4.608 5.292l.756.288zm18.72 2.448c1.044.252 1.224.756 1.224 1.8 0 1.224-.18 2.448-.18 3.672 0 1.368.864 2.484 2.304 2.484 2.556 0 3.456-2.7 4.32-4.644l-.684-.288c-.54.936-1.548 3.852-2.736 3.852-.756 0-.54-1.224-.468-1.656l.036-1.044c.144-2.412-.18-3.924-2.808-4.644 2.052-1.26 5.94-2.556 5.94-5.364 0-1.332-1.44-2.196-2.7-2.196-2.484 0-4.284 1.908-5.58 3.744l-.072-.072 1.944-7.704c.396-1.476.828-2.952 1.224-4.428l-5.868.36-.252.792c.432 0 2.736-.252 2.736.756 0 .396-.144.936-.252 1.332L218.464 59h2.7l1.8-6.192 2.844-1.296zm-2.592.288c.684-2.304 2.952-7.236 5.76-7.236.72 0 1.188.432 1.188 1.116 0 2.988-4.536 5.148-6.948 6.12zm14.4.216c-.576 1.404-1.584 3.348-1.584 4.86 0 1.404.864 2.592 2.34 2.592 2.34 0 4.212-3.168 5.112-5.04l-.72-.36c-.54 1.116-2.484 4.32-3.852 4.32-.324 0-.54-.324-.54-.612 0-.648.864-2.808 1.08-3.42l1.152-2.916c.648-1.62 1.692-3.78 1.692-5.508 0-1.26-.864-2.448-2.232-2.448-2.304 0-3.78 2.844-4.824 4.608l.72.396c.504-.972 2.268-3.924 3.384-3.924.396 0 .612.36.612.72 0 .864-1.008 3.456-1.332 4.32l-1.008 2.412zm4.608-13.356c.9 0 1.656-.72 1.656-1.584 0-.936-.684-1.692-1.656-1.692-.936 0-1.62.756-1.62 1.692 0 .9.756 1.584 1.62 1.584zm7.416 19.224c.864-2.844 1.98-6.084 3.456-8.676.828-1.476 2.916-4.644 4.86-4.644.72 0 1.224.576 1.224 1.224 0 1.224-.864 3.168-1.296 4.284l-.648 1.764c-.468 1.404-1.332 3.6-1.332 5.076 0 1.44.828 2.556 2.376 2.556 2.484 0 4.212-3.276 5.148-5.256l-.756-.36c-.504 1.152-2.232 4.536-3.672 4.536-.504 0-.756-.684-.756-1.08 0-.72.972-3.168 1.224-3.888l.648-1.728c.576-1.512 1.224-3.672 1.224-5.292 0-1.584-1.188-2.916-2.808-2.916-3.096 0-5.184 3.492-6.408 5.868l-.072-.072.108-.648c.108-.792.288-1.908.288-2.664 0-1.368-.72-2.484-2.196-2.484-2.808 0-4.14 3.528-5.076 5.616l.72.252c.576-1.08 2.124-4.788 3.564-4.788.648 0 .684.756.684 1.152 0 2.484-1.908 8.496-2.736 11.016L246.616 59h2.7l.324-1.116zm28.188 5.76c0-6.732-10.656-3.492-10.656-6.696 0-1.476 2.844-1.512 3.888-1.512 3.996-.072 6.912-3.636 6.912-7.524 0-.648-.144-1.296-.396-1.908.396-.36.9-.9 1.512-.9.54 0 .468.432.54.864.072.612.576 1.08 1.188 1.08.792 0 1.404-.684 1.404-1.44 0-1.152-1.152-1.944-2.268-1.944-1.116 0-2.088.756-2.808 1.512-.936-1.152-2.088-1.692-3.6-1.692-3.744 0-7.02 3.78-7.02 7.38 0 1.62 1.044 3.024 2.412 3.852-1.8.36-3.924 1.26-3.924 3.42 0 2.844 4.248 3.276 6.3 3.6 1.836.252 4.536.396 4.536 2.844 0 2.7-3.132 3.348-5.292 3.348-2.412 0-5.184-.72-5.184-3.564 0-1.152.684-2.088 1.764-2.484-.468-.252-.9-.432-1.44-.432-1.476 0-2.664 1.188-2.664 2.664 0 3.6 4.284 4.608 7.236 4.608 3.312 0 7.56-1.116 7.56-5.076zm-6.48-9c-1.476 0-2.232-1.296-2.232-2.628 0-2.196 1.44-7.74 4.212-7.74 1.368 0 2.052 1.332 2.052 2.592 0 2.232-1.116 7.776-4.032 7.776zm-116.82 30.832h-.756c-1.98 3.708-3.78 7.2-8.568 7.2-4.284 0-6.084-2.988-6.084-6.948 0-5.544 3.636-16.02 10.404-16.02 4.068 0 4.824 3.06 5.04 6.48h.72l1.368-6.696h-.36l-1.26 1.296c-1.944-1.188-3.384-1.872-5.724-1.872-7.812 0-13.788 8.028-13.788 15.408 0 5.364 3.564 9.144 8.964 9.144 2.916 0 4.896-.576 7.308-2.268l.432 1.872h.396l1.908-7.596zm11.448-16.452l-6.012.36-.216.792c.828.072 2.592-.144 2.592 1.152 0 .396-.252 1.116-.36 1.476l-3.672 12.06c-.432 1.368-1.368 4.428-1.368 5.76 0 1.584.828 2.844 2.52 2.844 2.664 0 4.212-3.24 5.256-5.22l-.828-.396c-.468 1.08-2.484 4.536-3.672 4.536-.54 0-.684-.612-.684-1.044 0-1.944 1.548-6.66 2.16-8.676l4.284-13.644zm10.008 9.252c1.044 0 1.692.936 1.692 1.908 0 2.052-1.224 5.148-2.088 7.02-.972 2.052-2.736 5.472-5.292 5.472-1.26 0-1.764-1.368-1.764-2.448 0-2.916 3.852-11.952 7.452-11.952zm2.448 1.152c-.468-1.188-1.404-1.944-2.736-1.944-5.04 0-9.756 7.092-9.756 11.736 0 2.34 1.656 4.248 4.068 4.248 2.484 0 4.248-2.196 5.364-4.176l.072.072c-.108.648-.324 1.332-.324 2.052 0 1.296.864 2.052 2.16 2.052 2.772 0 3.924-3.564 5.004-5.652l-.756-.324c-.54 1.08-2.268 4.896-3.492 4.896-.432 0-.468-.54-.468-.864 0-2.124 1.692-7.452 2.376-9.288l1.584-4.284h-2.556l-.54 1.476zm7.596 2.304c0 3.096 4.176 5.724 4.176 8.244 0 1.8-1.44 2.7-3.132 2.7-.864 0-2.232-.324-2.232-1.404 0-.324.108-.648.108-.972 0-.612-.504-1.08-1.08-1.08-.72 0-.936.648-.936 1.332 0 2.196 2.592 2.916 4.356 2.916 2.916 0 5.58-1.584 5.508-4.716-.072-3.564-4.176-5.76-4.176-8.28 0-1.332 1.188-2.196 2.412-2.196 2.556 0 .72 2.412 2.556 2.412.54 0 .9-.396.9-.936 0-1.692-2.16-2.268-3.492-2.268-2.592 0-4.968 1.476-4.968 4.248zm12.24 0c0 3.096 4.176 5.724 4.176 8.244 0 1.8-1.44 2.7-3.132 2.7-.864 0-2.232-.324-2.232-1.404 0-.324.108-.648.108-.972 0-.612-.504-1.08-1.08-1.08-.72 0-.936.648-.936 1.332 0 2.196 2.592 2.916 4.356 2.916 2.916 0 5.58-1.584 5.508-4.716-.072-3.564-4.176-5.76-4.176-8.28 0-1.332 1.188-2.196 2.412-2.196 2.556 0 .72 2.412 2.556 2.412.54 0 .9-.396.9-.936 0-1.692-2.16-2.268-3.492-2.268-2.592 0-4.968 1.476-4.968 4.248zm27.252-.288h11.988l-1.908 7.164c-.756 2.664-1.008 3.816-4.176 3.672l-.216.792c1.656-.036 3.276-.108 4.932-.144 1.692.036 3.384.108 5.076.144l.252-.792c-1.26-.036-3.132.18-3.132-1.188 0-.576.54-2.196.684-2.772l3.528-13.212c.252-.864.972-3.492 1.512-4.176.648-.9 2.052-.864 3.06-.9l.216-.792c-1.872.036-3.708.108-5.58.144-1.548-.036-3.096-.108-4.644-.144l-.216.792c1.296.036 3.204-.144 3.204 1.332 0 .576-.468 2.124-.612 2.7l-1.692 6.3h-11.988l1.44-5.256c.252-.864.972-3.492 1.512-4.176.648-.9 2.052-.864 3.06-.9l.216-.792c-1.692.036-3.348.108-5.04.144-1.692-.036-3.384-.108-5.076-.144l-.216.792c.864.036 3.168-.18 3.168 1.26 0 .612-.504 2.16-.684 2.772l-4.14 14.544c-.756 2.664-1.008 3.816-4.176 3.672l-.216.792c1.548-.036 3.06-.108 4.608-.144 1.8.036 3.564.108 5.364.144l.252-.792c-1.26-.036-3.132.18-3.132-1.188 0-.576.54-2.196.684-2.772l2.088-6.876zm29.628 6.912c-1.296 1.728-3.024 4.32-5.436 4.32-1.224 0-1.764-.936-1.764-2.052 0-1.152.288-2.268.612-3.312l.576-.252c2.88-1.188 8.172-3.312 8.172-7.092 0-1.512-1.116-2.484-2.592-2.484-5.04 0-9.36 7.344-9.36 11.88 0 2.484 1.512 4.104 4.032 4.104 2.88 0 4.932-2.448 6.408-4.644l-.648-.468zm-6.3-2.016c.576-2.16 2.736-8.064 5.364-8.064.72 0 1.116.468 1.116 1.188 0 3.204-3.924 5.76-6.48 6.876zm9.144-3.276c.324-.828 2.304-4.5 3.168-4.5.648 0 .576 1.656.576 1.98 0 1.8-.612 4.752-1.044 6.516L258.856 93h2.664l1.152-3.42c.9-2.736 1.944-5.94 3.276-8.496.288-.576 1.512-2.52 2.268-2.52.324 0 .252.54.252.756 0 .72.504 1.152 1.188 1.152.756 0 1.404-.612 1.404-1.332 0-1.08-1.044-1.656-2.016-1.656-2.556 0-4.284 3.78-5.04 5.796l-.072-.072c.072-.792.252-1.584.288-2.376.036-1.44-.576-3.348-2.376-3.348-1.908 0-3.96 3.636-4.608 5.292l.756.288zm16.704 10.404c4.68 0 8.28-5.94 8.28-10.152 0-3.024-1.62-5.832-4.968-5.832-4.86 0-8.316 6.552-8.316 10.728 0 3.096 1.872 5.256 5.004 5.256zm.036-.792c-1.692 0-2.448-1.08-2.448-2.7 0-2.952 2.124-11.7 5.904-11.7 1.476 0 2.196 1.368 2.196 2.664 0 3.024-1.692 11.736-5.652 11.736zm19.368-4.32c-1.296 1.728-3.024 4.32-5.436 4.32-1.224 0-1.764-.936-1.764-2.052 0-1.152.288-2.268.612-3.312l.576-.252c2.88-1.188 8.172-3.312 8.172-7.092 0-1.512-1.116-2.484-2.592-2.484-5.04 0-9.36 7.344-9.36 11.88 0 2.484 1.512 4.104 4.032 4.104 2.88 0 4.932-2.448 6.408-4.644l-.648-.468zm-6.3-2.016c.576-2.16 2.736-8.064 5.364-8.064.72 0 1.116.468 1.116 1.188 0 3.204-3.924 5.76-6.48 6.876zm11.34-4.608c0 3.096 4.176 5.724 4.176 8.244 0 1.8-1.44 2.7-3.132 2.7-.864 0-2.232-.324-2.232-1.404 0-.324.108-.648.108-.972 0-.612-.504-1.08-1.08-1.08-.72 0-.936.648-.936 1.332 0 2.196 2.592 2.916 4.356 2.916 2.916 0 5.58-1.584 5.508-4.716-.072-3.564-4.176-5.76-4.176-8.28 0-1.332 1.188-2.196 2.412-2.196 2.556 0 .72 2.412 2.556 2.412.54 0 .9-.396.9-.936 0-1.692-2.16-2.268-3.492-2.268-2.592 0-4.968 1.476-4.968 4.248z" fill="#474747"/></g></svg>