<svg xmlns="http://www.w3.org/2000/svg" width="439" height="62" viewBox="0 0 439 62"><title>Untitled 14</title><path fill="none" stroke="#979797" stroke-linecap="round" d="M148 34H1.45M437.187 34H288"/><path fill="#474747" d="M197.46 12.242c0-.8 0-2.34.28-3.06.28-.72.98-.7 1.62-.72v-.46c-.76.02-1.5.06-2.24.08-.78-.02-1.54-.06-2.32-.08v.46c.78 0 1.58.08 1.86.92.2.62.2 2.16.2 2.86v4.38c0 2.68-1.38 4.12-4.14 4.12-2.74 0-3.74-1.46-3.74-4.02v-4.92c0-.64 0-2.12.18-2.66.24-.7 1.08-.68 1.72-.68v-.46c-1.02.02-2.02.06-3.04.08-.94-.02-1.9-.06-2.84-.08v.46c.64 0 1.46 0 1.72.68.2.54.2 2.02.2 2.66v4.78c0 3.62 1.74 4.88 5.32 4.88 3.8 0 5.22-1.88 5.22-5.52v-3.7zm5.2 4.8c0 .78 0 2.04-.16 2.76-.2.86-.94.9-1.72.98v.46c.74-.02 1.48-.06 2.22-.08.76.02 1.54.06 2.3.08v-.46c-.74-.08-1.4-.04-1.74-.82-.3-.68-.3-2.18-.3-2.92v-6.72h.04l7.82 9.48c.44.56.88 1.12 1.32 1.66h.6v-8.62c0-.8.04-2.86.24-3.5.26-.86.78-.8 1.52-.88v-.46c-.74.02-1.42.06-2.12.08-.74-.02-1.46-.06-2.2-.08v.46c1 .16 1.54.08 1.78 1.2.18.82.18 2.22.18 3.08v5.56h-.04l-8.44-10.3c-.52.02-1.06.06-1.58.08-.64-.02-1.26-.06-1.9-.08v.46c1.08.02 1.56.32 2.18 1.2v7.38zm15.02.4c0 .64 0 2.12-.18 2.66-.22.68-1.06.68-1.7.68v.46c.9-.02 1.8-.06 2.72-.08 1.18.02 2.38.06 3.56.08 4.12.1 6.9-2.1 6.9-6.34 0-4.34-3.2-6.98-7.42-6.9-1.08.02-2.16.06-3.24.08-.84-.02-1.7-.06-2.52-.08v.5c.64 0 1.48-.02 1.7.68.18.54.18 2.02.18 2.66v5.6zm2.06-8.14c0-.16 0-.5.12-.62.18-.18.96-.14 1.2-.14 4.28 0 5.42 2.72 5.42 6.68 0 2.96-.68 5.48-4.18 5.48-.76 0-1.78-.08-2.24-.76-.4-.58-.32-1.54-.32-2.22v-8.42zm12.74 8.1c0 .64 0 2.12-.2 2.66-.26.68-1.08.68-1.72.68v.46h10.88l.18-3.22h-.46c-.26 2.38-1.62 2.64-3.7 2.68-.8.02-2.04-.02-2.56-.72-.36-.48-.36-1.42-.36-2.02v-3.28c1.92 0 2.98.1 3.26 2.2h.46c-.02-.82-.04-1.66-.08-2.48.04-.9.06-1.82.08-2.72h-.46c-.12 1.44-.52 2.58-3.26 2.46v-4.74c0-.44-.02-.66.02-.74.06-.1.2-.08.5-.08h1.44c2.12 0 3.16.14 3.54 2.48h.46v-3.02h-9.94v.54c.64 0 1.46 0 1.72.68.2.54.2 2.02.2 2.66v5.52zm14.46-8.08c0-.22-.04-.6.22-.72.18-.08 1.06-.02 1.3-.02 1.8 0 2.8 1.24 2.8 3 0 2.9-1.82 2.96-4.32 2.96v-5.22zm3 5.42c1.98-.18 3.62-1.28 3.62-3.44 0-2.78-2.3-3.3-4.58-3.3-.84.02-1.7.06-2.54.08-1.14-.02-2.3-.06-3.44-.08v.46c.64 0 1.48-.02 1.7.68.18.54.18 2.02.18 2.66v5.64c0 .64 0 2.12-.18 2.66-.22.68-1.06.68-1.7.68v.46c1-.02 2-.06 3-.08.96.02 1.9.06 2.82.08v-.46c-.64 0-1.46.02-1.7-.68-.18-.54-.18-2.02-.18-2.66v-2.36c1.06 0 .98.12 1.64.88l3.32 4.12.94 1.16c.5-.02 1-.06 1.5-.08.6.02 1.2.06 1.8.08v-.46c-1.02-.16-1.32-.44-1.96-1.18l-4.24-4.86zm-38.2 13.26h-12.28v3.12h.46c.08-2.38 1.04-2.48 3.02-2.48.8 0 1.68-.06 1.68.54v9.48c0 1.48-.28 2.04-2.22 2.12v.46c1.08-.02 2.12-.06 3.18-.08 1.1.02 2.22.06 3.32.08v-.46c-1.94-.08-2.22-.64-2.22-2.12v-9.48c0-.64 1.2-.54 1.94-.54 1.88 0 2.64.52 2.76 2.48h.54l-.18-3.12zm5.14 6.76h7.14v2.68c0 .64 0 2.12-.2 2.66-.26.68-1.08.68-1.72.68v.46c1-.02 2-.06 3-.08.96.02 1.94.06 2.9.08v-.46c-.64 0-1.46 0-1.72-.68-.2-.54-.2-2.02-.2-2.66v-5.64c0-.64 0-2.12.2-2.66.26-.68 1.08-.68 1.72-.68v-.46c-1 .02-1.98.06-2.98.08-.98-.02-1.94-.06-2.92-.08v.46c.64 0 1.46 0 1.72.68.2.54.2 2.02.2 2.66v2.32h-7.14v-2.32c0-.64 0-2.12.2-2.66.26-.68 1.08-.68 1.72-.68v-.46c-1.02.02-2.02.06-3.04.08-.96-.02-1.92-.06-2.86-.08v.46c.64 0 1.46 0 1.72.68.2.54.2 2.02.2 2.66v5.64c0 .64 0 2.12-.2 2.66-.26.68-1.08.68-1.72.68v.46c.98-.02 2-.06 3-.08.96.02 1.94.06 2.9.08v-.46c-.64 0-1.46 0-1.72-.68-.2-.54-.2-2.02-.2-2.66v-2.68zm14.2 2.64c0 .64 0 2.12-.2 2.66-.26.68-1.08.68-1.72.68v.46h10.88l.18-3.22h-.46c-.26 2.38-1.62 2.64-3.7 2.68-.8.02-2.04-.02-2.56-.72-.36-.48-.36-1.42-.36-2.02v-3.28c1.92 0 2.98.1 3.26 2.2h.46c-.02-.82-.04-1.66-.08-2.48.04-.9.06-1.82.08-2.72h-.46c-.12 1.44-.52 2.58-3.26 2.46v-4.74c0-.44-.02-.66.02-.74.06-.1.2-.08.5-.08h1.44c2.12 0 3.16.14 3.54 2.48h.46v-3.02h-9.94v.54c.64 0 1.46 0 1.72.68.2.54.2 2.02.2 2.66v5.52zm-38.4 17.36h7.14v2.68c0 .64 0 2.12-.2 2.66-.26.68-1.08.68-1.72.68v.46c1-.02 2-.06 3-.08.96.02 1.94.06 2.9.08v-.46c-.64 0-1.46 0-1.72-.68-.2-.54-.2-2.02-.2-2.66v-5.64c0-.64 0-2.12.2-2.66.26-.68 1.08-.68 1.72-.68v-.46c-1 .02-1.98.06-2.98.08-.98-.02-1.94-.06-2.92-.08v.46c.64 0 1.46 0 1.72.68.2.54.2 2.02.2 2.66v2.32h-7.14v-2.32c0-.64 0-2.12.2-2.66.26-.68 1.08-.68 1.72-.68v-.46c-1.02.02-2.02.06-3.04.08-.96-.02-1.92-.06-2.86-.08v.46c.64 0 1.46 0 1.72.68.2.54.2 2.02.2 2.66v5.64c0 .64 0 2.12-.2 2.66-.26.68-1.08.68-1.72.68v.46c.98-.02 2-.06 3-.08.96.02 1.94.06 2.9.08v-.46c-.64 0-1.46 0-1.72-.68-.2-.54-.2-2.02-.2-2.66v-2.68zm19.96 6.7c4.04 0 7.26-2.84 7.26-6.94 0-3.96-3.36-6.76-7.18-6.76-3.86 0-7.34 2.92-7.34 6.9 0 4.02 3.36 6.8 7.26 6.8zm0-13.16c3.52 0 4.76 3.3 4.76 6.3 0 2.98-1.08 6.32-4.64 6.32-3.64 0-4.88-3.12-4.88-6.26 0-2.96 1.3-6.36 4.76-6.36zm16.4 13.16c4.04 0 7.26-2.84 7.26-6.94 0-3.96-3.36-6.76-7.18-6.76-3.86 0-7.34 2.92-7.34 6.9 0 4.02 3.36 6.8 7.26 6.8zm0-13.16c3.52 0 4.76 3.3 4.76 6.3 0 2.98-1.08 6.32-4.64 6.32-3.64 0-4.88-3.12-4.88-6.26 0-2.96 1.3-6.36 4.76-6.36zm10.64 9.14c0 .64 0 2.12-.18 2.66-.22.68-1.06.68-1.7.68v.46c.9-.02 1.8-.06 2.72-.08 1.18.02 2.38.06 3.56.08 4.12.1 6.9-2.1 6.9-6.34 0-4.34-3.2-6.98-7.42-6.9-1.08.02-2.16.06-3.24.08-.84-.02-1.7-.06-2.52-.08v.5c.64 0 1.48-.02 1.7.68.18.54.18 2.02.18 2.66v5.6zm2.06-8.14c0-.16 0-.5.12-.62.18-.18.96-.14 1.2-.14 4.28 0 5.42 2.72 5.42 6.68 0 2.96-.68 5.48-4.18 5.48-.76 0-1.78-.08-2.24-.76-.4-.58-.32-1.54-.32-2.22v-8.42z"/></svg>